<svg preserveAspectRatio="xMidYMid meet" viewBox="0 186.368 1034.24 618.496" xmlns="http://www.w3.org/2000/svg" version="1.0" width="1600" height="618.496">

<g stroke="none" fill="#00a43b" transform="translate(0.000000,1024.000000) scale(0.100000,-0.100000)">
<path d="M5844 8084 c-186 -171 -330 -289 -469 -383 -136 -92 -202 -130 -470&#10;-264 -126 -64 -276 -143 -332 -177 -351 -207 -586 -478 -693 -798 -90 -270&#10;-76 -602 37 -831 45 -90 138 -217 188 -255 19 -15 35 -35 35 -44 0 -9 -21 -80&#10;-45 -157 -50 -154 -135 -483 -159 -614 -32 -167 -15 -234 67 -271 83 -38 210&#10;-16 279 48 39 37 39 38 73 207 39 201 124 543 140 562 1 2 49 -4 106 -13 125&#10;-19 339 -14 469 11 454 88 874 475 1003 925 62 215 62 206 62 1228 l0 934 -24&#10;19 c-15 12 -39 19 -66 19 -40 0 -48 -6 -201 -146z m63 -1084 c-4 -649 -5 -679&#10;-26 -765 -61 -256 -149 -423 -307 -582 -156 -157 -355 -263 -589 -314 -99 -22&#10;-405 -39 -405 -23 0 13 136 272 203 385 118 200 371 564 552 794 127 161 135&#10;174 135 222 0 58 -29 99 -80 114 -33 10 -44 9 -82 -9 -87 -43 -425 -376 -640&#10;-632 -131 -155 -335 -439 -412 -573 -15 -26 -31 -45 -35 -42 -17 10 -54 103&#10;-77 194 -19 74 -24 120 -24 221 0 315 104 563 330 791 140 140 263 223 615&#10;414 224 121 355 200 465 279 100 71 290 228 340 280 l35 37 3 -58 c2 -32 1&#10;-362 -1 -733z"/>
<path d="M8535 3758 c-58 -21 -113 -67 -136 -114 -17 -36 -23 -71 -27 -145&#10;l-5 -98 -71 -3 -71 -3 -1 -82 -2 -83 74 0 74 0 0 -345 0 -345 105 0 105 0 0&#10;345 0 345 110 0 110 0 0 85 0 85 -110 0 -110 0 0 55 c0 121 58 165 188 141&#10;l42 -8 0 85 0 84 -37 7 c-59 9 -205 6 -238 -6z"/>
<path d="M4700 3150 l0 -610 105 0 105 0 0 204 c0 113 4 207 8 210 5 3 80 -89&#10;168 -204 l159 -210 129 0 c125 0 128 0 115 19 -8 11 -75 97 -149 192 -74 94&#10;-152 193 -172 219 l-38 49 66 63 c36 35 120 120 186 191 l120 127 -130 0 -130&#10;0 -159 -169 c-87 -93 -161 -169 -165 -170 -5 -1 -8 156 -8 347 l0 348 -105 2&#10;-105 2 0 -610z"/>
<path d="M1990 3723 c-205 -34 -395 -202 -455 -403 -89 -299 31 -615 281 -739&#10;165 -82 400 -82 558 2 86 45 179 140 217 222 17 36 29 68 26 71 -2 3 -50 18&#10;-105 33 l-100 28 -23 -50 c-59 -126 -215 -198 -365 -167 -172 35 -281 169&#10;-292 361 -6 112 10 193 55 267 48 80 78 108 153 145 57 28 74 32 150 32 70 0&#10;95 -5 140 -26 72 -34 114 -70 147 -128 15 -25 28 -48 29 -49 1 -2 48 11 104&#10;29 114 38 113 35 63 125 -35 63 -125 151 -190 187 -100 54 -273 80 -393 60z"/>
<path d="M5640 3125 l0 -585 375 0 375 0 0 95 0 95 -270 0 -270 0 0 490 0 490&#10;-105 0 -105 0 0 -585z"/>
<path d="M3017 3390 c-165 -52 -277 -190 -296 -366 -33 -293 147 -504 429&#10;-504 265 0 450 189 450 459 0 152 -83 299 -211 374 -97 57 -260 73 -372 37z&#10;m239 -179 c149 -68 183 -334 57 -453 -79 -75 -219 -79 -305 -8 -96 80 -108&#10;295 -21 408 52 69 179 94 269 53z"/>
<path d="M4010 3396 c-156 -43 -277 -173 -311 -334 -15 -73 -6 -203 19 -269&#10;43 -112 143 -211 255 -250 80 -28 252 -25 330 6 118 47 210 148 248 273 27 88&#10;23 234 -9 315 -45 118 -150 216 -270 253 -74 23 -192 26 -262 6z m220 -188&#10;c53 -27 105 -92 121 -151 16 -61 7 -183 -18 -232 -96 -185 -359 -161 -418 39&#10;-43 142 11 298 119 347 58 26 140 25 196 -3z"/>
<path d="M6750 3395 c-197 -55 -312 -237 -297 -470 12 -195 116 -334 290 -387&#10;56 -17 87 -20 166 -16 149 7 241 57 312 167 16 25 29 50 29 57 0 6 -23 14 -52&#10;18 -29 4 -68 11 -86 17 -30 10 -35 8 -53 -15 -30 -38 -94 -67 -160 -73 -46 -5&#10;-66 -1 -111 19 -72 33 -101 75 -122 171 l-6 27 299 0 c272 0 300 2 303 17 2 9&#10;0 59 -3 110 -5 80 -11 104 -43 168 -66 133 -166 195 -326 201 -56 3 -104 -1&#10;-140 -11z m183 -159 c64 -23 105 -75 122 -153 l7 -33 -196 0 c-222 0 -214 -4&#10;-177 82 42 97 143 140 244 104z"/>
<path d="M7631 3395 c-92 -26 -165 -85 -195 -157 -30 -70 -27 -74 75 -87 50&#10;-7 92 -10 94 -9 1 2 11 19 23 39 31 51 80 72 155 67 53 -4 63 -8 93 -40 32&#10;-35 54 -90 54 -135 0 -22 -3 -23 -102 -23 -138 0 -220 -14 -295 -51 -75 -36&#10;-118 -85 -140 -158 -31 -108 1 -208 87 -270 108 -78 310 -63 408 32 27 26 34&#10;29 42 17 5 -8 10 -30 10 -47 l0 -33 98 0 97 0 -5 317 c-5 267 -8 325 -23 361&#10;-27 71 -72 118 -145 154 -60 30 -75 33 -172 35 -70 2 -123 -2 -159 -12z m299&#10;-530 c0 -103 -55 -163 -169 -185 -116 -22 -191 43 -162 140 21 72 84 97 244&#10;99 l87 1 0 -55z"/>
</g>
</svg>